<svg xmlns="http://www.w3.org/2000/svg" width="40" height="40" viewBox="0 0 40 40" fill="none"><path d="M37.675 3.32147H29.7984V0H26.9514V3.32147H12.1471V0H9.30013V3.32147H1.42349C0.616845 3.32147 0 3.93832 0 4.74496V38.5765C0 39.3832 0.616845 40 1.42349 40H37.675C38.4816 40 39.0985 39.3832 39.0985 38.5765V4.74496C39.0985 3.98577 38.4816 3.32147 37.675 3.32147ZM9.72717 32.6928C8.16133 32.6928 6.92764 31.4591 6.92764 29.8932C6.92764 28.3274 8.16133 27.0937 9.72717 27.0937C11.293 27.0937 12.5267 28.3274 12.5267 29.8932C12.5267 31.4591 11.293 32.6928 9.72717 32.6928ZM9.72717 24.3416C8.16133 24.3416 6.92764 23.1079 6.92764 21.5421C6.92764 19.9763 8.16133 18.7426 9.72717 18.7426C11.293 18.7426 12.5267 19.9763 12.5267 21.5421C12.5267 23.1079 11.293 24.3416 9.72717 24.3416ZM19.5492 32.6928C17.9834 32.6928 16.7497 31.4591 16.7497 29.8932C16.7497 28.3274 17.9834 27.0937 19.5492 27.0937C21.1151 27.0937 22.3488 28.3274 22.3488 29.8932C22.3488 31.4116 21.1151 32.6928 19.5492 32.6928ZM19.5492 24.3416C17.9834 24.3416 16.7497 23.1079 16.7497 21.5421C16.7497 19.9763 17.9834 18.7426 19.5492 18.7426C21.1151 18.7426 22.3488 19.9763 22.3488 21.5421C22.3488 23.0605 21.1151 24.3416 19.5492 24.3416ZM29.3713 32.6928C27.8055 32.6928 26.5718 31.4591 26.5718 29.8932C26.5718 28.3274 27.8055 27.0937 29.3713 27.0937C30.9371 27.0937 32.1708 28.3274 32.1708 29.8932C32.1708 31.4591 30.9371 32.6928 29.3713 32.6928ZM29.3713 24.3416C27.8055 24.3416 26.5718 23.1079 26.5718 21.5421C26.5718 19.9763 27.8055 18.7426 29.3713 18.7426C30.9371 18.7426 32.1708 19.9763 32.1708 21.5421C32.1708 23.1079 30.9371 24.3416 29.3713 24.3416ZM36.2515 11.1981V11.7675H2.84698V6.16845H9.30013V9.58482H12.1471V6.16845H26.9514V9.58482H29.7984V6.16845H36.2515V11.1981Z" fill="#135216"></path></svg>