<svg xmlns="http://www.w3.org/2000/svg" width="42" height="48" viewBox="0 0 42 48" fill="none"><path d="M1.52685 18.6003C1.25703 18.6028 0.991374 18.5338 0.756852 18.4003C0.584835 18.3036 0.433829 18.1736 0.31267 18.0179C0.19151 17.8621 0.10263 17.6838 0.0512292 17.4932C-0.000171107 17.3027 -0.0130593 17.1039 0.0133189 16.9083C0.039697 16.7128 0.104812 16.5244 0.204853 16.3543C2.13285 13.1363 7.99883 5.62537 20.7988 5.62537C26.3458 5.62537 31.2108 7.08236 35.2518 9.95435C38.5777 12.3113 40.4417 14.9793 41.3297 16.2643C41.4424 16.4263 41.5214 16.6092 41.5623 16.8022C41.6032 16.9952 41.6051 17.1944 41.5678 17.3881C41.5305 17.5818 41.4549 17.7662 41.3453 17.9302C41.2357 18.0942 41.0944 18.2347 40.9297 18.3433C40.5932 18.5658 40.1832 18.6485 39.7867 18.5738C39.3902 18.4992 39.0383 18.273 38.8057 17.9433C37.1987 15.6323 32.2988 8.60036 20.7988 8.60036C9.57383 8.60036 4.49884 15.0713 2.84585 17.8463C2.71303 18.0781 2.52075 18.2701 2.28887 18.4027C2.05699 18.5352 1.79392 18.6035 1.52685 18.6003Z" fill="#5C1414"></path><path d="M27.2476 48.0001C27.12 48.0016 26.9926 47.9872 26.8686 47.9571C17.5836 45.6571 14.1166 36.3751 13.9756 35.9891L13.9536 35.9041C13.8776 35.6361 12.0146 29.2711 14.8746 25.5431C16.1856 23.8431 18.1796 22.9711 20.8126 22.9711C23.2606 22.9711 25.0266 23.7321 26.2406 25.3071C27.2406 26.5931 27.6406 28.1791 28.0276 29.7071C28.8406 32.8891 29.4276 34.5601 32.8066 34.7321C34.2906 34.8071 35.2656 33.9391 35.8186 33.2001C37.3136 31.1851 37.5736 27.9001 36.4466 25.0001C34.9986 21.2572 29.8596 14.2002 20.7986 14.2002C16.9306 14.2002 13.3766 15.4432 10.5266 17.7792C8.16764 19.7142 6.29865 22.4462 5.39865 25.2541C3.72965 30.4821 5.91865 38.7001 5.93965 38.7751C5.99076 38.9664 6.00306 39.1659 5.97582 39.362C5.94858 39.5581 5.88235 39.7468 5.78104 39.9169C5.67973 40.0869 5.54539 40.235 5.38595 40.3524C5.2265 40.4697 5.04517 40.5539 4.85265 40.6001C4.46371 40.7035 4.04974 40.6505 3.69944 40.4523C3.34914 40.2542 3.0904 39.9267 2.97866 39.5401C2.87866 39.1651 0.540662 30.4001 2.46866 24.3581C4.56865 17.8112 11.0496 11.2112 20.8016 11.2112C25.3086 11.2112 29.5666 12.7432 33.1206 15.6362C35.8726 17.8862 38.1206 20.9082 39.2966 23.9291C40.7915 27.7861 40.3906 32.1151 38.2776 34.9431C36.8696 36.8291 34.8646 37.8151 32.6436 37.7081C26.8576 37.4181 25.8176 33.3791 25.0596 30.4331C24.2796 27.4111 23.7806 25.9541 20.8016 25.9541C19.1656 25.9541 18.0166 26.4041 17.3016 27.3361C16.3266 28.6111 16.2506 30.6041 16.3586 32.0501C16.4295 33.0576 16.6004 34.0555 16.8686 35.0291C17.1066 35.6291 20.2056 43.2291 27.6276 45.0681C27.8194 45.1135 28.0003 45.1966 28.1597 45.3126C28.3192 45.4286 28.454 45.575 28.5563 45.7435C28.6587 45.912 28.7265 46.0992 28.7559 46.2941C28.7853 46.4891 28.7757 46.6879 28.7276 46.8791C28.637 47.2018 28.4433 47.4861 28.1761 47.6885C27.9089 47.8909 27.5828 48.0003 27.2476 48.0001Z" fill="#5C1414"></path><path d="M15.33 47.3139C15.1219 47.3143 14.9158 47.2728 14.7241 47.1919C14.5323 47.111 14.3589 46.9923 14.214 46.8429C10.498 42.9429 8.396 38.5819 7.60501 33.1289V33.0999C7.16101 29.4899 7.81101 24.379 10.996 20.865C13.347 18.272 16.652 16.954 20.802 16.954C25.71 16.954 29.5669 19.236 31.9719 23.543C33.7169 26.672 34.0629 29.7899 34.0719 29.9179C34.0902 30.1153 34.0694 30.3143 34.0107 30.5036C33.9519 30.6929 33.8564 30.8688 33.7297 31.0211C33.6029 31.1735 33.4473 31.2993 33.2718 31.3914C33.0963 31.4835 32.9043 31.5401 32.7069 31.5579C32.3086 31.6012 31.9093 31.486 31.5952 31.2374C31.2811 30.9887 31.0773 30.6265 31.0279 30.2289C30.7645 28.3581 30.1591 26.5517 29.2419 24.9C27.378 21.611 24.542 19.939 20.791 19.939C17.551 19.939 15.016 20.914 13.272 22.839C10.758 25.614 10.272 29.8889 10.617 32.7169C11.31 37.5389 13.163 41.3749 16.435 44.8029C16.5715 44.945 16.6781 45.113 16.7485 45.2971C16.8188 45.4812 16.8513 45.6776 16.8443 45.8745C16.8372 46.0714 16.7906 46.2649 16.7072 46.4435C16.6238 46.622 16.5054 46.782 16.359 46.9139C16.077 47.1695 15.7106 47.3119 15.33 47.3139Z" fill="#5C1414"></path><path d="M32.4488 43.0182C29.1988 43.0182 26.4359 42.1182 24.2249 40.3292C19.7829 36.7502 19.2849 30.9212 19.2629 30.6752C19.2316 30.2714 19.362 29.8717 19.6254 29.5641C19.8888 29.2564 20.2636 29.066 20.6674 29.0347C21.0712 29.0034 21.4708 29.1338 21.7785 29.3972C22.0861 29.6606 22.2766 30.0354 22.3079 30.4392C22.3189 30.5252 22.7629 35.2932 26.1869 38.0392C28.2128 39.6572 30.9208 40.2992 34.2578 39.9242C34.6567 39.8758 35.0584 39.9873 35.3753 40.2343C35.6922 40.4812 35.8984 40.8436 35.9488 41.2422C35.9707 41.4391 35.9531 41.6383 35.8971 41.8284C35.8411 42.0184 35.7478 42.1953 35.6227 42.3489C35.4976 42.5025 35.3432 42.6297 35.1684 42.7229C34.9936 42.8162 34.8021 42.8737 34.6048 42.8922C33.8892 42.9757 33.1693 43.0178 32.4488 43.0182Z" fill="#5C1414"></path><path d="M35.017 3.27899C33.749 2.45399 29.253 0 20.799 0C11.925 0 7.41805 2.71099 6.42105 3.39999C6.35521 3.44041 6.29357 3.48731 6.23705 3.53999C6.23109 3.54576 6.22332 3.54929 6.21505 3.54999C6.05585 3.68899 5.9281 3.86034 5.84033 4.05261C5.75256 4.24487 5.70678 4.45364 5.70605 4.66499C5.70879 4.8631 5.75059 5.05874 5.82907 5.24067C5.90754 5.4226 6.02115 5.58726 6.16337 5.72521C6.30559 5.86316 6.47364 5.97169 6.65788 6.04458C6.84213 6.11747 7.03894 6.15329 7.23705 6.14998C7.55458 6.14977 7.86445 6.05241 8.12505 5.87098C8.16805 5.83898 12.047 2.98899 20.802 2.98899C29.557 2.98899 33.457 5.82898 33.499 5.84998C33.7652 6.04741 34.0885 6.15273 34.42 6.14998C34.6182 6.15302 34.8152 6.11688 34.9994 6.04362C35.1837 5.97036 35.3517 5.86143 35.4938 5.72308C35.6358 5.58474 35.7492 5.41969 35.8273 5.23743C35.9054 5.05517 35.9468 4.85927 35.949 4.66099C35.9491 4.36398 35.8604 4.07372 35.6943 3.82747C35.5282 3.58122 35.2924 3.39022 35.017 3.27899Z" fill="#5C1414"></path></svg>