<svg xmlns="http://www.w3.org/2000/svg" width="40" height="40" viewBox="0 0 40 40" fill="none"><path d="M39.8713 17.6963C39.7863 17.493 39.6647 17.308 39.5097 17.153L34.5113 12.1546C33.8597 11.5046 32.8063 11.5046 32.1547 12.1546C31.5031 12.8063 31.5031 13.8613 32.1547 14.5113L34.3097 16.6662H24.9996C24.078 16.6662 23.333 17.4129 23.333 18.3329C23.333 19.2529 24.078 19.9995 24.9996 19.9995H34.3096L32.1546 22.1545C31.503 22.8062 31.503 23.8612 32.1546 24.5112C32.4796 24.8378 32.9063 24.9995 33.333 24.9995C33.7597 24.9995 34.1863 24.8379 34.5113 24.5112L39.5097 19.5128C39.6647 19.3594 39.7863 19.1744 39.8713 18.9694C40.0396 18.563 40.0396 18.103 39.8713 17.6963Z" fill="#686016"></path><path d="M28.3332 23.3333C27.4116 23.3333 26.6666 24.08 26.6666 25V33.3333H20V6.66663C20 5.93163 19.5166 5.28163 18.8116 5.06999L13.0233 3.33335H26.6666V11.6667C26.6666 12.5867 27.4116 13.3333 28.3332 13.3333C29.2549 13.3333 29.9999 12.5867 29.9999 11.6667V1.66672C29.9999 0.746639 29.2549 0 28.3332 0H1.66664C1.60664 0 1.55328 0.025 1.495 0.0316406C1.41664 0.0399999 1.345 0.0532811 1.27 0.0716405C1.095 0.11664 0.936639 0.185 0.788358 0.278281C0.751717 0.30164 0.706717 0.303281 0.671718 0.329921C0.65828 0.339999 0.65328 0.358359 0.639921 0.368359C0.45828 0.51164 0.30664 0.686639 0.19664 0.894998C0.173281 0.939998 0.168281 0.988357 0.15 1.035C0.0966404 1.16164 0.0383593 1.285 0.0183593 1.425C0.00999998 1.475 0.025 1.52164 0.0233593 1.57C0.0217187 1.60336 0 1.63336 0 1.66664V34.9999C0 35.7949 0.56164 36.4783 1.34 36.6333L18.0066 39.9666C18.115 39.99 18.225 40 18.3332 40C18.7149 40 19.0899 39.8684 19.3899 39.6216C19.7749 39.305 19.9999 38.8333 19.9999 38.3333V36.6666H28.3332C29.2549 36.6666 29.9999 35.92 29.9999 35V25C29.9999 24.08 29.2549 23.3333 28.3332 23.3333Z" fill="#686016"></path></svg>