<svg xmlns="http://www.w3.org/2000/svg" width="41" height="38" viewBox="0 0 41 38" fill="none"><path d="M23.0707 18.9998C27.5484 18.9998 31.5044 14.7833 31.8921 9.59997C32.0846 6.99598 31.2678 4.56758 29.5917 2.76345C27.9335 0.981371 25.6153 0 23.0707 0C20.5058 0 18.1859 0.975434 16.5396 2.74648C14.8745 4.53704 14.0628 6.97054 14.2494 9.59827C14.6303 14.7825 18.5854 18.9998 23.0707 18.9998Z" fill="#460F4B"></path><path d="M40.6609 34.5864C39.9451 30.6152 37.71 27.2792 34.1985 24.9381C31.0796 22.8592 27.1279 21.7141 23.0709 21.7141C19.0139 21.7141 15.0622 22.8592 11.9433 24.9373C8.43176 27.2783 6.19674 30.6143 5.48086 34.5856C5.31715 35.4957 5.53938 36.3957 6.09071 37.0547C6.34078 37.3551 6.65477 37.5958 7.00975 37.7592C7.36473 37.9227 7.75174 38.0048 8.14252 37.9996H37.9993C38.3903 38.0052 38.7776 37.9233 39.1329 37.76C39.4882 37.5966 39.8024 37.356 40.0528 37.0556C40.6024 36.3965 40.8246 35.4966 40.6609 34.5864Z" fill="#460F4B"></path><path d="M7.46419 21.7142V18.3214H10.857C11.2169 18.3214 11.5621 18.1784 11.8166 17.9239C12.0711 17.6694 12.2141 17.3242 12.2141 16.9642C12.2141 16.6043 12.0711 16.2591 11.8166 16.0046C11.5621 15.7501 11.2169 15.6071 10.857 15.6071H7.46419V12.2143C7.46419 11.8544 7.32121 11.5092 7.0667 11.2547C6.81219 11.0002 6.467 10.8572 6.10706 10.8572C5.74713 10.8572 5.40194 11.0002 5.14743 11.2547C4.89292 11.5092 4.74994 11.8544 4.74994 12.2143V15.6071H1.35713C0.997193 15.6071 0.652003 15.7501 0.397493 16.0046C0.142982 16.2591 0 16.6043 0 16.9642C0 17.3242 0.142982 17.6694 0.397493 17.9239C0.652003 18.1784 0.997193 18.3214 1.35713 18.3214H4.74994V21.7142C4.74994 22.0741 4.89292 22.4193 5.14743 22.6738C5.40194 22.9283 5.74713 23.0713 6.10706 23.0713C6.467 23.0713 6.81219 22.9283 7.0667 22.6738C7.32121 22.4193 7.46419 22.0741 7.46419 21.7142Z" fill="#460F4B"></path></svg>